# xmcd
#
# Track frame offsets:
#	150
#	14967
#	32697
#	53690
#	66532
#	84222
#	97412
#	114860
#	127317
#	142335
#	160525
#	175537
#
# Disc length: 2546 seconds
#
# Revision: 1
# Processed by: cddbd v1.5.1PL0 Copyright (c) Steve Scherf et al.
# Submitted via: audiograbber 1.83.01
#
DISCID=a909f00c
DTITLE=Die Skippers - Heut´ steigt ´ne Party
DYEAR=1900
DGENRE=
TTITLE0=Heut´ steigt ´ne Party
TTITLE1=Sansibar
TTITLE2=Kleine Perle der Südsee
TTITLE3=Lotto-Millionär
TTITLE4=Blumenwalzer
TTITLE5=Boogie-Woogie-Susi
TTITLE6=Was träumt die Oma im Himmelbett
TTITLE7=Heut´ geht es rund im Saal
TTITLE8=Was lockt die Lisa nach Pisa?
TTITLE9=Versuch es noch einnmal
TTITLE10=Julianchen
TTITLE11=Erinnerungen
EXTD=
EXTT0=
EXTT1=
EXTT2=
EXTT3=
EXTT4=
EXTT5=
EXTT6=
EXTT7=
EXTT8=
EXTT9=
EXTT10=
EXTT11=
PLAYORDER=
